<?xml version="1.0" encoding="UTF-8"?>
<svg width="271.28" height="1025.8" version="1.1" viewBox="0 0 71.776 271.4" xml:space="preserve" xmlns="http://www.w3.org/2000/svg"><path d="m25.862 0.0030909c-2.7597-0.00595-4.6279-0.00399-4.7046 0.011886-0.35953 0.066231-2.1095 8.9847-2.19 11.257l-0.0031 0.01395 0.0026 0.0026c-0.0083 0.25917 1.96e-4 0.45058 0.04186 0.5054 0.29633 0.59264 1.4397 1.4183 1.9689 1.6934-0.10294 0.78236-5.6505 53.379-5.5645 77.993l-0.22324 3.1202c-2.1754 8.3907-12.782 14.699-15.008 28.955l-0.1819 0.33331 0.002067 0.97307c-6.2874e-4 5e-3 -0.001441 0.0106-0.002067 0.016v132.94c1.215e-4 6.6272 6.96 13.587 13.587 13.587h44.601c6.6272-1.2e-4 13.587-6.96 13.587-13.587v-132.94c-6.26e-4 -5e-3 -0.0014-0.0106-0.0021-0.016l0.0021-0.97359-0.1819-0.33331c-2.2265-14.255-12.833-20.564-15.008-28.954l-0.22324-3.1233c0.08553-24.616-5.4616-77.208-5.5645-77.99 0.52915-0.27516 1.672-1.1008 1.9684-1.6934 0.04163-0.05478 0.05013-0.24602 0.04186-0.50488l0.0031-0.0031-0.0031-0.01499c-0.08113-2.2738-1.8306-11.189-2.19-11.256-0.15305-0.031666-7.4406-0.00785-14.704 0.023771-0.01909-8.32e-5 -0.03362 8.32e-5 -0.05271 0-3.6222-0.015771-7.2537-0.029735-9.9989-0.035657z"/></svg>
