<?xml version="1.0" encoding="UTF-8"?>
<svg width="24" height="24" data-name="Layer 1" version="1.1" viewBox="0 0 24 24" xmlns="http://www.w3.org/2000/svg">
 <path d="m12.738 3.0039c-0.18548 0.0093226-0.37008 0.037172-0.55078 0.083984-0.28769 0.073626-0.55955 0.19764-0.80469 0.36523-0.2746-0.18004-0.58217-0.30547-0.9043-0.36914-0.39448-0.078629-0.80093-0.074612-1.1934 0.013672-0.40938 0.090613-0.79098 0.28189-1.1094 0.55469v0.0019531c-0.14964 0.1289-0.2807 0.27669-0.39258 0.43945-0.61379-0.26611-1.3041-0.30455-1.9434-0.10742-0.47027 0.1431-0.89325 0.41021-1.2266 0.77148-0.34234 0.36886-0.56504 0.83059-0.64062 1.3281-0.1259 0.8669 0.19129 1.8294 1.209 2.6699-0.004393 1.7119-0.019531 9.6649-0.019531 10.791 0.0063738 0.80019 0.65488 1.4475 1.4551 1.4531h8.5625c0.38485-0.001121 0.75382-0.15504 1.0254-0.42773 0.27256-0.27166 0.42644-0.64057 0.42773-1.0254v-0.79102l0.78516 0.066407c1.441 0.1332 2.6367-1.1826 2.6367-2.6367v-3.168c-1e-6 -1.4819-1.2153-2.8256-2.6973-2.6953l-0.73242 0.064453v-1.5684c0.88298-0.6428 1.185-1.4397 1.125-2.1719-0.026945-0.33378-0.12927-0.65771-0.30078-0.94531-0.1624-0.27303-0.37981-0.51041-0.63672-0.69727-0.38123-0.28183-0.84233-0.43206-1.3164-0.42773-0.27357-0.48573-0.67115-0.88845-1.1523-1.1699-0.3232-0.18868-0.67912-0.31691-1.0488-0.375-0.18449-0.028456-0.37116-0.036666-0.55664-0.027344zm0.03711 0.93945c0.91555-0.054129 1.9135 0.57142 2.2109 1.7246 1.2901-0.72487 2.9877 1.3173 0.97852 2.584-0.42104 0.05824-0.84675 0.07884-1.2715 0.0625-0.66484-0.01172-0.83057 0.32734-0.83789 0.93359-0.01611 1.334-1.6877 1.5217-2.2734 0.65039-0.391-0.58575-0.05221-1.5977-1.625-1.5977h-3.9316c-2.9098-2.0311 0.30285-4.928 2.293-2.6934-0.15962-1.8612 2.4851-2.1539 3.0664-0.80078 0.32126-0.55297 0.8413-0.8308 1.3906-0.86328zm2.8105 5.1953 0.003906 0.0097656v10.396c9.55e-4 0.1098-0.041381 0.21545-0.11914 0.29297-0.077525 0.07776-0.18317 0.12205-0.29297 0.12109h-8.5605c-0.22659-0.001596-0.41051-0.18551-0.41211-0.41211v-10.396h3.7363c0.4481 0 0.49806 0.18463 0.55078 0.36914 0.062259 0.29382 0.17637 0.57367 0.33594 0.82812 0.28979 0.42326 0.72344 0.72754 1.2207 0.85352 0.376 0.09735 0.77244 0.09735 1.1484 0 0.91111-0.22794 1.5427-1.0571 1.5234-1.9961v-0.052734h0.61914l0.24609-0.013672zm-4.6895 2.7891c-0.27469 0-0.54983 0.17354-0.5957 0.52148v5.1055c0.09174 0.69589 1.0997 0.69589 1.1914 0v-5.1055c-0.04587-0.34795-0.32101-0.52148-0.5957-0.52148zm5.7344 0.17774h0.96289c0.37193 8.05e-4 0.67418 0.3019 0.67578 0.67383v3.709c-0.002397 0.33787-0.27541 0.61088-0.61328 0.61328h-1.0254v-4.9961zm-3.1484 0.2207c-0.27658 0-0.55286 0.17545-0.5957 0.52734v4.2988c0.085677 0.70378 1.1077 0.70378 1.1934 0v-4.2988c-0.042838-0.35189-0.32108-0.52734-0.59766-0.52734zm-5.1719 0.003906c-0.30831-0.017569-0.57455 0.21535-0.5957 0.52344v4.2988c0.021158 0.30808 0.28739 0.54101 0.5957 0.52344 0.30886 0.018401 0.57455-0.21475 0.5957-0.52344v-4.2988c-0.021152-0.30869-0.28684-0.54184-0.5957-0.52344z"/>
</svg>
