<?xml version="1.0" encoding="UTF-8"?>
<svg width="24" height="24" data-name="Layer 1" version="1.1" viewBox="0 0 24 24" xmlns="http://www.w3.org/2000/svg">
 <g transform="matrix(.14644 0 0 .14644 3.9459 3.0002)">
  <path class="cls-1 UnoptimicedTransforms" d="m60.992 0c-1.5857-8.0563e-4 -3.1704 0.20004-4.7129 0.59961-1.9646 0.50278-3.826 1.3457-5.5 2.4902-1.8752-1.2295-3.9702-2.0847-6.1699-2.5195-2.6938-0.53694-5.4687-0.50327-8.1484 0.099609-2.7956 0.61872-5.396 1.9163-7.5703 3.7793v0.021484c-1.0219 0.88023-1.9274 1.8885-2.6914 3-4.1914-1.8172-8.8942-2.0766-13.26-0.73047-3.2112 0.97722-6.1028 2.7927-8.3789 5.2598-2.3377 2.5188-3.8647 5.6826-4.3809 9.0801-0.86 5.92 1.3098 12.49 8.2598 18.23-0.03 11.69-0.12891 65.999-0.12891 73.689 0.043584 5.4644 4.4652 9.8818 9.9297 9.9199h58.48c2.628-8e-3 5.1456-1.0578 7-2.9199 1.8612-1.8551 2.9111-4.3722 2.9199-7v-5.4102l5.3594 0.46094c9.84 0.91 18-8.07 18-18v-21.641c0-10.12-8.2902-19.3-18.41-18.41l-5 0.43945v-10.699c6.03-4.39 8.0897-9.8398 7.6797-14.84-0.184-2.2793-0.88736-4.4872-2.0586-6.4512-1.109-1.8645-2.5874-3.4837-4.3418-4.7598-2.6034-1.9247-5.7625-2.9495-9-2.9199-1.8681-3.3169-4.5833-6.0778-7.8691-8-2.207-1.2884-4.6355-2.1521-7.1602-2.5488-0.94486-0.14573-1.8962-0.22022-2.8477-0.2207zm-13.531 60.963c1.8762 0 3.7538 1.1875 4.0664 3.5645v34.861c-0.62517 4.7539-7.5057 4.7539-8.1309 0v-34.861c0.31259-2.3769 2.1882-3.5645 4.0645-3.5645zm39.158 1.2168h6.5801c2.5399 0.0055 4.6003 2.0598 4.6113 4.5996v25.33c-0.01635 2.3073-1.8841 4.1751-4.1914 4.1914h-7zm-21.492 1.5039c1.8888 0 3.778 1.2002 4.0703 3.6035v29.352c-0.58467 4.8066-7.5559 4.8066-8.1406 0v-29.352c0.29234-2.4033 2.1815-3.6035 4.0703-3.6035zm-35.33 0.02344c2.1092-0.12568 3.9259 1.4721 4.0703 3.5801v29.352c-0.14444 2.108-1.9611 3.7038-4.0703 3.5781-2.1054 0.11998-3.9161-1.4743-4.0605-3.5781v-29.352c0.14448-2.1039 1.9551-3.7001 4.0605-3.5801z" fill="#fff"/>
  <path class="cls-1 UnoptimicedTransforms" transform="translate(-.0016479 -.00088621)" d="m14.06 35.87c-19.87-13.87 2.07-33.65 15.66-18.39-1.09-12.71 16.97-14.72 20.94-5.48 5.85-10.07 21.34-6.72 24.59 5.88 8.81-4.95 20.4 9 6.68 17.65-2.8751 0.39769-5.7797 0.54158-8.68 0.43-4.54-0.08-5.68 2.24-5.73 6.38-0.11 9.11-11.52 10.38-15.52 4.43-2.67-4-0.35-10.9-11.09-10.9z" fill="#c96e12" fill-rule="evenodd"/>
 </g>
</svg>
