<?xml version="1.0" encoding="UTF-8"?>
<svg width="24" height="24" data-name="Layer 1" version="1.1" viewBox="0 0 24 24" xmlns="http://www.w3.org/2000/svg">
 <g transform="matrix(.15676 0 0 .15675 3.0958 1.7317)">
  <path d="m8.4322 44.92c-0.036088 15.685-0.12168 60.926-0.12168 68.08 0.043584 5.4644 4.4653 9.8818 9.9297 9.9199h58.48c2.628-8e-3 5.1456-1.0578 7-2.9199 1.8612-1.8551 2.9111-4.3722 2.9199-7v-5.4102l5.3594 0.46094c9.84 0.91 18-8.07 18-18v-21.641c0-10.12-8.2902-19.3-18.41-18.41l-5 0.43945v-5.4629c0-1.6569-1.3431-2.9966-3-2.9965-2.0953 1.28e-4 -4.8813-9.16e-4 -6.9766-0.0019-1.6569-7.7e-4 -2.9756 1.3523-3.2458 2.9853-1.4363 8.6816-8.8463 11.081-14.099 11.158-5.6158 0.14541-8.6952-0.62566-12.292-5.9765l-0.0059-0.0078-0.0039-0.0078c-2.8891-4.2072-0.94859-8.1585-6.0586-8.209-9.8229 1.2e-5 -19.646 2e-6 -29.469 0-1.6568 0-3.0032 1.3431-3.0071 3zm39.029 16.043c1.8762 0 3.7538 1.1875 4.0664 3.5645v34.861c-0.62517 4.7539-7.5057 4.7539-8.1309 0v-34.861c0.31259-2.3769 2.1883-3.5645 4.0645-3.5645zm39.158 1.2168h6.5801c2.5399 0.0055 4.6003 2.0598 4.6113 4.5996v25.33c-0.01635 2.3073-1.8841 4.1751-4.1914 4.1914h-7zm-21.492 1.5039c1.8888 0 3.778 1.2002 4.0703 3.6035v29.352c-0.58467 4.8066-7.5559 4.8066-8.1406 0v-29.352c0.29234-2.4033 2.1815-3.6035 4.0703-3.6035zm-35.33 0.02344c2.1092-0.12568 3.9259 1.4721 4.0703 3.5801v29.352c-0.07238 1.0564-0.56476 1.9842-1.3035 2.6311-1.215 1.0641-4.3189 1.0601-5.5312-7e-3 -0.73461-0.6466-1.2239-1.5716-1.2962-2.6241v-29.352c0.14448-2.1039 1.9552-3.7001 4.0605-3.5801z"/>
  <path d="m61.094 8.0918c-0.45723-0.00661-0.91119 0.018428-1.3633 0.060547-0.09537 0.00887-0.19012 0.018235-0.28516 0.029297-0.4344 0.050616-0.86594 0.12196-1.291 0.21875-0.07482 0.017031-0.14819 0.038167-0.22266 0.056641-0.40045 0.099368-0.79528 0.21792-1.1836 0.35938-0.05775 0.021029-0.11639 0.03858-0.17383 0.060547-0.40844 0.15626-0.8065 0.34082-1.1973 0.54492-0.09368 0.048903-0.18676 0.098712-0.2793 0.15039-0.38699 0.21624-0.76623 0.45159-1.1309 0.7168-0.04807 0.03495-0.09298 0.07552-0.14062 0.11133-0.34195 0.25708-0.67197 0.53822-0.99023 0.83984-0.0577 0.05468-0.11697 0.10596-0.17383 0.16211-0.33014 0.32603-0.64366 0.6785-0.94336 1.0547-0.07133 0.08954-0.1395 0.18299-0.20898 0.27539-0.29153 0.38768-0.57148 0.79386-0.82812 1.2324-7e-3 0.012-0.01644 0.02116-0.02344 0.0332-0.12383-0.28821-0.26187-0.5657-0.41211-0.83203-2.73e-4 -4.84e-4 2.73e-4 -0.0015 0-2e-3 -0.15012-0.266-0.31383-0.52142-0.48828-0.76562-5.35e-4 -7.49e-4 -0.0014-0.0012-2e-3 -2e-3 -0.03502-0.04899-0.07538-0.09251-0.11133-0.14062-0.14353-0.19194-0.28945-0.38238-0.44722-0.56045-0.19718-0.22263-0.40551-0.43392-0.62305-0.63477-0.43609-0.40263-0.91031-0.7609-1.416-1.0762-0.49382-0.30787-1.0176-0.57205-1.5625-0.79688-0.02681-0.011067-0.05316-0.022337-0.08008-0.033203-0.54564-0.22021-1.1127-0.40122-1.6934-0.53906-0.59564-0.1414-1.2058-0.23993-1.8223-0.29492s-1.2384-0.066311-1.8594-0.035156c-0.62102 0.031155-1.2402 0.10563-1.8496 0.22266-0.59331 0.11395-1.1771 0.27169-1.7441 0.4668-0.03015 0.010376-0.05979 0.020645-0.08984 0.03125-0.56595 0.19963-1.1148 0.43608-1.6387 0.7168-0.53738 0.28798-1.0484 0.61914-1.5254 0.99219-0.95408 0.7461-1.7714 1.6613-2.3867 2.7461-0.30767 0.54238-0.56504 1.1273-0.76367 1.7539-0.19863 0.62665-0.33874 1.2952-0.41211 2.0059-0.07337 0.71065-0.07984 1.4634-0.01172 2.2578-0.42505-0.47728-0.85898-0.9201-1.2988-1.3301-0.44139-0.41141-0.8886-0.7886-1.3418-1.1348-0.44862-0.34295-0.90266-0.65466-1.3613-0.9375-0.0053-0.0033-0.01028-0.0065-0.01563-0.0098-13.452-8.2745-30.624 8.78-17.262 21.803h32.469c4.0275 0 6.2192 0.9707 7.5254 2.3945 0.6531 0.71195 1.0843 1.536 1.4141 2.4102 0.10992 0.29136 0.20917 0.58887 0.30078 0.88867 0.36643 1.1993 0.62075 2.4469 1.0469 3.5898 0.21306 0.57149 0.46899 1.1172 0.80274 1.6172 0.25 0.37188 0.52871 0.71593 0.83203 1.0312 0.30332 0.31532 0.63101 0.60092 0.97852 0.85938 0.695 0.51687 1.4702 0.92141 2.2871 1.209 0.81695 0.28766 1.6772 0.45965 2.543 0.51562 0.86513 0.05566 1.7372-0.0055 2.5781-0.18359 1.2623-0.26719 2.4567-0.79888 3.459-1.5996 0.33408-0.26691 0.64668-0.56383 0.93359-0.89062 0.86074-0.98039 1.488-2.231 1.7598-3.7559 0.09059-0.50828 0.14156-1.0459 0.14844-1.6152 8e-6 -6.88e-4 -8e-6 -0.0013 0-2e-3 0.0062-0.51681 0.0295-1.0059 0.07422-1.4648 6.6e-5 -6.79e-4 -6.6e-5 -0.0013 0-2e-3 0.08971-0.91813 0.26659-1.7178 0.56445-2.3906 2.39e-4 -5.41e-4 -2.4e-4 -0.0014 0-2e-3 2e-3 -0.0045 0.0058-0.0073 0.0078-0.01172 0.1479-0.33132 0.32328-0.63219 0.53516-0.90039 0.21044-0.26639 0.45621-0.50113 0.73828-0.70312 0.01211-0.0087 0.02486-0.01684 0.03711-0.02539 0.28474-0.19879 0.60582-0.3656 0.9707-0.49805 0.37307-0.13542 0.79009-0.23499 1.2559-0.29883 0.46577-0.06384 0.97938-0.09203 1.5469-0.08203 0.80065 0.0308 1.6018 0.0374 2.4023 0.0293 3.5139 0.0048 8.6589-0.14354 10.939-0.45898 11.461-9.0509-0.8046-21.004-9.6406-18.369-0.28809 0.08443-0.57422 0.18623-0.85938 0.30664-0.28242 0.11925-0.56402 0.25604-0.8418 0.41211-0.11292-0.43779-0.24321-0.86206-0.38477-1.2773-0.04578-0.13433-0.09784-0.26258-0.14648-0.39453-0.09755-0.26454-0.19794-0.52634-0.30664-0.78125-0.06943-0.16281-0.14298-0.32163-0.2168-0.48047-0.10625-0.22868-0.21702-0.45342-0.33203-0.67383-0.07859-0.15061-0.1577-0.30055-0.24023-0.44726-0.1314-0.2336-0.26919-0.45994-0.41016-0.68359-0.07073-0.11223-0.13985-0.22623-0.21289-0.33594-0.18792-0.28222-0.38345-0.55493-0.58594-0.82031-0.03914-0.05129-0.07558-0.10559-0.11523-0.15625-0.24576-0.31395-0.50096-0.61488-0.76562-0.9043-0.06473-0.07079-0.13343-0.13577-0.19922-0.20508-0.2009-0.21163-0.40495-0.41946-0.61523-0.61719-0.0955-0.08979-0.19369-0.17482-0.29102-0.26172-0.19352-0.17269-0.38953-0.3405-0.58983-0.50182-0.10217-0.08228-0.20478-0.16293-0.30859-0.24219-0.20276-0.15481-0.40856-0.30208-0.61719-0.44531-0.10213-0.07011-0.2032-0.14167-0.30664-0.20898-0.24058-0.15658-0.48537-0.30397-0.73242-0.44531-0.07466-0.042713-0.14745-0.089547-0.22266-0.13086-0.32214-0.17699-0.64949-0.34111-0.98047-0.49219-0.06584-0.03004-0.13308-0.054977-0.19922-0.083984-0.27417-0.12028-0.5493-0.23354-0.82812-0.33594-0.10184-0.037403-0.20427-0.070467-0.30664-0.10547-0.23586-0.080648-0.4727-0.15679-0.71094-0.22461-0.12416-0.035341-0.24837-0.067778-0.37305-0.099609-0.23705-0.060535-0.4744-0.11434-0.71289-0.16211-0.10683-0.021393-0.21328-0.043685-0.32031-0.0625-0.26843-0.047191-0.53751-0.084374-0.80664-0.11523-0.08535-0.00979-0.1705-0.023116-0.25586-0.03125-0.35391-0.033732-0.70754-0.055446-1.0605-0.060547z"/>
 </g>
</svg>
