<?xml version="1.0" encoding="UTF-8"?>
<svg width="24" height="24" data-name="Layer 1" version="1.1" viewBox="0 0 24 24" xmlns="http://www.w3.org/2000/svg">
 <path d="m2.159 19.08c0.00844 1.0576 0.86425 1.9126 1.9219 1.92h11.319c0.50865-0.0015 0.99593-0.20473 1.3548-0.56515 0.36024-0.35904 0.56345-0.84624 0.56515-1.3548v-1.0471l1.0373 0.08921c1.9045 0.17613 3.4839-1.5619 3.4839-3.4839v-4.1885c0-1.9587-1.6046-3.7355-3.5633-3.5633l-0.96775 0.08506v-2.2186c0.01711-0.86812-0.48035-1.7413-1.7419-1.7413 0.0165 0.0059-5.9966-0.01163-11.642-0.01163-0.91944 0-1.7426 0.75406-1.7433 1.7419-0.00224-1.3979-0.022449 11.125-0.023552 14.338zm7.5776-10.846c0.36314 0 0.72655 0.22984 0.78705 0.68989v6.7474c0 0.92803-1.4527 0.92011-1.5737 0v-6.7474c0.0605-0.46005 0.42354-0.68989 0.78668-0.68989zm7.5791 1.0097h1.2736c0.49159 0.0011 0.8904 0.39866 0.89252 0.89025v4.9026c-0.0032 0.44657-0.36468 0.80808-0.81125 0.81124h-1.3548zm-4.1598-0.48312c0.36558 0 0.73123 0.2323 0.78781 0.69746v5.681c0 0.93716-1.5756 0.93716-1.5756 0v-5.681c0.05658-0.46515 0.42223-0.69746 0.78781-0.69746zm-6.8381 0.0045c0.40823-0.02432 0.75985 0.28492 0.78781 0.69292v5.6809c-0.01401 0.20447-0.10931 0.38404-0.25228 0.50925-0.23517 0.20596-0.83592 0.20518-1.0706-0.0014-0.14218-0.12507-0.23689-0.3041-0.25088-0.50781v-5.681c0-0.40816 0.37842-0.71614 0.78592-0.69292z" stroke-width=".19355"/>
</svg>
