<?xml version="1.0" encoding="UTF-8"?>
<svg width="24" height="24" data-name="Layer 1" version="1.1" viewBox="0 0 24 24" xmlns="http://www.w3.org/2000/svg">
 <path d="m4.0957 3c-0.04118 2.9e-4 -0.081458 0.00434-0.12199 0.00721-1.2749-0.019877-1.7918 0.79666-1.7838 1.6954-0.00845 0.070849-0.01377 0.14267-0.014352 0.21566h0.014352c-0.0076116 3.6955-0.021906 12.867-0.021906 14.163 0.0084277 1.0567 0.86346 1.9109 1.9201 1.9183h11.309c0.50818-0.0016 0.99501-0.20455 1.3536-0.56465 0.3599-0.35873 0.56293-0.84549 0.56463-1.3536v-1.0462l1.0364 0.08913c1.9028 0.17597 3.4807-1.5606 3.4807-3.4808v-4.1848c0-1.957-1.6031-3.7322-3.56-3.5601l-0.96686 0.08498c9.01e-4 -0.019788 5.6e-5 -1.6697 0-2.0656h0.01737c-3e-3 -0.053741-0.0097-0.10626-0.01737-0.15863 0.0092-1.2158-0.62214-1.7698-1.7872-1.7461-0.03798-0.00533-0.07615-0.011077-0.11368-0.013593zm0 1.3748c0.047833-0.00762 11.255-5.16e-5 11.255-5.16e-5 0.36402 0.020156 0.60467 0.27699 0.58684 0.53217v14.173c0.0012 0.14499-0.05595 0.28438-0.15863 0.38676-0.10237 0.10268-0.24176 0.15998-0.38675 0.15863h-11.304c-0.29922-0.002114-0.54138-0.24428-0.54348-0.5435v-14.163l0.00114-0.011372c0.0021045-0.29923 0.25068-0.53007 0.5499-0.53217zm5.6437 3.8709c-0.36281 0-0.72551 0.22964-0.78596 0.68928v6.7414c0.12089 0.9193 1.451 0.9193 1.5719 0v-6.7414c0-0.4636-0.42315-0.68928-0.78596-0.68928zm7.5714 1.0084h1.2724c0.49114 0.0011 0.88958 0.39831 0.89171 0.88946v4.8983c-0.0032 0.44617-0.36434 0.80736-0.8105 0.81052h-1.3536zm-4.1553-0.48231c-0.36525 0-0.73056 0.2321-0.78709 0.69684v5.6759c0.11306 0.92948 1.4607 0.92948 1.5738 0v-5.6759c0-0.46817-0.42146-0.69684-0.78671-0.69684zm-6.8319 0.00492c-0.40713-0.023208-0.75726 0.28509-0.7852 0.69193v5.6759c0.027939 0.40684 0.37807 0.71551 0.7852 0.69231 0.40786 0.0243 0.75878-0.28467 0.78671-0.69231v-5.6759c-0.02793-0.40764-0.37885-0.71623-0.78671-0.69193z" stroke-width=".19338"/>
</svg>
