<?xml version="1.0" encoding="UTF-8"?>
<svg width="603" height="392" version="1.1" viewBox="0 0 603 392" xmlns="http://www.w3.org/2000/svg">
 <g>
  <path d="m255 295.13c138.08 0 250.7-28.116 250.7-62.591s-112.62-62.592-250.7-62.592c-138.08 0-250.7 28.117-250.7 62.592 0 34.474 112.62 62.591 250.7 62.591" fill="#969696" opacity=".313"/>
  <path d="m435.08 384.98c-12.197 1.117-80.842 7.114-90.975 2.554-19.814-8.915 27.362-30.142-62.865-43.751-41.596-6.275-72.865-8.361-114.52-10.247-19.633-0.888-76.368-0.968-80.92-24.33l-0.382-4.654c-0.504-31.493 39.756-35.551 64.1-39.142 47.672-7.031 86.205-8.067 133.77-9.367 39.588-1.083 67.741-8.915 17.567-35.77l-3.571-1.91c-7.771-4.036-41.998-18.432-26.66-28.099 23.898-15.064 98.824-16.636 126.59-15.562 51.433 2.189 146.93 15.476 190.05 41.642 55.901 33.923-79.131 43.632-94.631 46.149-9.187 1.492-57.086 9.744-32.514 27.237 19.982 14.223 105.42 26.176 109.62 50.367 4.792 27.637-113.78 42.802-134.66 44.883" fill="#d1ad5a"/>
  <path d="m316.68 229.87c-4.033-2.89-9.247-6.074-15.81-9.589l-3.571-1.91c-7.771-4.036-41.998-18.432-26.66-28.099 23.898-15.064 98.824-16.636 126.59-15.562 1.911 0.081 3.891 0.18 5.919 0.292v20.771c1e-3 18.754-15.345 34.097-34.098 34.097h-52.366" fill="#a9883c"/>
  <path d="m64.448 214.54c-34.489 0-62.448-47.688-62.448-106.51 0-58.823 27.959-106.51 62.448-106.51v-1e-3h308.43c18.755 0 34.098 15.344 34.098 34.098v144.83c0 18.754-15.343 34.098-34.098 34.098h-308.43" fill="#2af619"/>
  <path d="m276.87 8.617-212.42 1e-3c-1.735 0-3.467 0.15-5.177 0.446-8.367 1.451-15.625 6.218-21.66 12.364-4.362 4.442-6.46 9.894-6.203 16.114 0.255 6.224 2.794 11.482 7.508 15.553 1.073 0.926 2.21 1.852 3.415 2.775 10.766 8.257 52.03-6.162 84.541-0.8 46.453 7.664 42.188 47.799 96.781 27.007 32.058-12.21 86.624-55.048 53.22-73.459v-1e-3" fill="#48e83e"/>
  <path d="m228.24 16.062h-163.8c-0.847 0-1.696 0.074-2.529 0.219-5.128 0.889-9.698 4.33-13.255 7.953-1.351 1.378-1.86 2.695-1.781 4.624 0.08 1.942 0.686 3.196 2.155 4.465 0.574 0.494 1.157 0.977 1.746 1.449 3.871 0.705 13.727-0.466 17.097-0.848 11.509-1.303 22.883-2.899 34.474-3.43 9.002-0.413 18.131-0.223 27.041 1.247 13.669 2.255 25.241 7.113 36.518 15.082 6.378 4.507 12.786 10.65 19.399 14.48 10.349 5.995 22.386 2.226 32.826-1.749 6.617-2.519 13.38-6.089 19.682-10.013 6.965-4.339 10.09-12.461 7.832-20.35-2.255-7.888-9.204-13.129-17.408-13.129" fill="#5eed78"/>
  <path d="m64.448 214.54c-31.403 0-57.389-39.538-61.79-91.016 2.115 9.842 4.887 18.304 8.204 25.617 9.848 21.707 30.237 34.845 54.076 34.845h179.85c11.658 0 21.691-4.36 29.646-12.883 7.954-8.524 11.61-18.835 10.807-30.467-4.225-61.121 16.468-128.31 75.764-128.29-36.452 19.359-45.687 60.225-45.053 108.11 0.734 55.444 32.776 93.959 60.782 93.864-1.267 0.145-2.554 0.222-3.858 0.222h-308.43" fill="#5eda2a"/>
 </g>
 <path d="m390.58 204.58c34.396 0 62.451-43.373 62.451-96.551 0-53.177-28.055-96.551-62.452-96.551-34.395 0-62.451 43.374-62.451 96.551 0 53.178 28.056 96.551 62.452 96.551" fill="#adada9"/>
 <path d="m412.42 22.06c24.691 9.966 42.913 44.677 42.913 85.971s-18.222 76.006-42.913 85.972v2.88h-14.558c-31.74 0-57.469-39.781-57.469-88.852s25.729-88.851 57.469-88.851h14.558v2.88" fill="#c7c7c2"/>
 <path d="m412.42 196.88c31.655 0 57.473-39.914 57.473-88.852 0-48.937-25.818-88.851-57.473-88.851-31.653 0-57.471 39.914-57.471 88.851 0 48.938 25.818 88.852 57.471 88.852" fill="#f4f4f2"/>
 <path d="m412.42 191.56c28.72 0 52.144-37.52 52.144-83.524 0-46.003-23.424-83.523-52.144-83.523-28.718 0-52.143 37.52-52.143 83.523s23.425 83.524 52.143 83.524" fill="#adada9"/>
 <path d="m405.05 190.72c-25.303-5.742-44.767-40.572-44.767-82.689s19.464-76.948 44.767-82.687c25.305 5.739 44.768 40.57 44.768 82.687s-19.462 76.947-44.768 82.689" fill="#e5e5e0"/>
 <path d="m402.37 125.18c10.052 0 18.198 19.864 18.198 34.673 0 14.814-8.146 18.965-18.198 18.965-10.053 0-18.201-4.151-18.201-18.965 0-14.809 8.148-34.673 18.201-34.673" fill="#2d2e2c"/>
 <path d="m207.76 50.463c40.733 0 64.312 30.491 64.312 71.224s-23.579 76.285-64.312 76.285c-40.731 0-83.195-35.552-83.195-76.285s42.464-71.224 83.195-71.224" fill="#f8c823"/>
 <path d="m162.63 183.99h82.159c0.658 0 1.312-0.013 1.96-0.042-10.222 8.773-23.335 14.025-38.984 14.025-15.622 0-31.499-5.235-45.135-13.983" fill="#f3b428"/>
 <path d="m156.09 66.909c19.371 13.368 28.066 30.209 67.559 15.168 8.444-3.217 18.449-8.559 27.997-15.02-10.788-10.45-25.609-16.594-43.888-16.594-18.192 0-36.725 6.087-51.668 16.446" fill="#fada3c"/>
 <path d="m177.52 55.891c2.574 2.005 5.169 3.89 7.795 5.412 10.349 5.995 22.386 2.226 32.826-1.749 3.998-1.523 8.053-3.429 12.025-5.566-6.742-2.294-14.226-3.525-22.402-3.525-10.204 0-20.516 1.916-30.244 5.428" fill="#fdf07f"/>
 <g>
  <path d="m135.92 306.17c-19.806-16.622 30.508-25.654 39.134-26.894 36.726-5.273 56.796-5.875 93.518-5.538 27.154 0.25 36.57-0.617 63.421-5.317 26.047-4.56 35.902 5.272 57.203 17.819 14.051 8.276 52.791 33.494 14.024 40.284-69.291 12.138-137.01-4.859-206.15-6.705-20.628-0.553-43.838-0.908-61.146-13.649" fill="#dab96b"/>
  <g transform="matrix(0 1.4187 -1.8499 0 658.11 -52.114)" opacity=".771" aria-label="BEER">
   <path d="m87.993 260.89c0.50879-10.24 0.65001-20.509 1.7757-30.708 3.3665-2.0375 7.4531-0.76618 11.088-1.7264 3.5404 0.13017 6.0691 3.9848 5.424 7.3307 1.0244 3.3308-4.593 6.0752-2.136 9.0593 2.2501 2.2664 3.2117 5.9157 1.5657 8.7936-1.8858 4.8209-7.3008 7.3232-12.266 6.9794-1.8169 0.10011-3.6382 0.11746-5.452 0.27198zm5.7812-6.25c3.2042 0.90583 7.4744-2.7406 5.3789-5.9608-2.6668-3.0696-7.1662 1.0538-5.2613 4.2599-0.04152 0.56615-0.20372 1.1305-0.11758 1.7009zm0.46875-11.25c2.9858-1.2334 5.8544-4.1559 5.3223-7.627-2.3191-3.4451-6.9383 1.2243-5.0664 4.1724-0.0853 1.1515-0.17059 2.303-0.25589 3.4545z"/>
   <path d="m108.15 260.89c0.6254-10.528 1.3548-21.049 2.1875-31.562 5.1562-0.26042 10.312-0.52083 15.469-0.78125-0.15625 1.9271-0.3125 3.8542-0.46875 5.7812-3.3854 0.26042-6.7708 0.52083-10.156 0.78125-0.15625 2.7083-0.3125 5.4167-0.46875 8.125 2.7604-0.15625 5.5208-0.3125 8.2812-0.46875 1.3096 2.8398-1.2296 7.2801-4.603 6.1345-3.158-1.8424-5.9708 4.7891-2.0102 5.2537 2.8527 0.22398 6.7606-2.0722 8.6774 1.0978 1.3052 3.0309-2.457 5.727-5.2533 4.959-3.901-0.26329-7.7597 0.5925-11.655 0.67999z"/>
   <path d="m128.15 260.89c0.6254-10.528 1.3548-21.049 2.1875-31.562 5.1562-0.26042 10.312-0.52083 15.469-0.78125-0.15625 1.9271-0.3125 3.8542-0.46875 5.7812-3.3854 0.26042-6.7708 0.52083-10.156 0.78125-0.15625 2.7083-0.3125 5.4167-0.46875 8.125 2.7604-0.15625 5.5208-0.3125 8.2812-0.46875 1.3096 2.8398-1.2296 7.2801-4.603 6.1345-3.158-1.8424-5.9708 4.7891-2.0102 5.2537 2.8527 0.22398 6.7606-2.0722 8.6774 1.0978 1.3052 3.0309-2.457 5.727-5.2533 4.959-3.901-0.26329-7.7597 0.5925-11.655 0.67999z"/>
   <path d="m148.15 260.74c0.52083-10.365 1.0417-20.729 1.5625-31.094 4.3062-0.59773 9.1683-2.0151 13.12 0.56346 3.5973 3.2069 3.3795 8.7291 1.7366 12.873-2.1478 1.9609-4.2485 5.3843-2.3358 8.176 2.0391 1.7354 3.8241 4.7591 2.3325 7.396-1.9529 3.0227-5.8253 0.69258-5.658-2.4563-0.69783-2.0665-1.318-6.2202-4.2584-5.6837-2.4196 2.1119-0.76666 5.4178-0.90956 8.0907-0.39291 2.786-3.5885 2.3256-5.5904 2.135zm5.625-15.625c4.0014-0.97621 7.636-5.1622 6.4312-9.4284-1.6975-3.2795-7.3832-0.5497-6.2123 2.8266 0.52977 2.1566-0.28935 4.4073-0.21887 6.6017z"/>
  </g>
  <path d="m364.12 300.07c-2.41 6.216-15.301 8.356-21.452 10.516-22.591 7.937-106.39 10.838-126.66-0.902-34.774-20.14 106.71-27.259 111.11-27.391 12.762-0.38 26.561 0.641 35.112 11.693 1.751 2.265 2.037 3.355 1.89 6.084" fill="#ebcb7d"/>
  <path d="m562.44 223.57c-7.845 26.932-83.715 13.449-103.41 8.185-34.379-9.191-20.55-25.979 8.572-29.868 15.577-2.082 93.106-4.38 94.882 19.287l-0.047 2.396" fill="#dab96b"/>
  <path d="m398.94 178.64c14.5 10.018 19.175 32.442 13.605 53.244-5.365 20.033 87.131 8.556 66.871 4.119-23.619-5.173-20.896-50.341-63.212-62.055-5.747-1.589-22.167 1.301-17.264 4.692" fill="#bb9640"/>
  <path d="m529.39 216.57c-4.107 14.101-43.831 7.04-54.141 4.285-17.999-4.812-10.761-13.602 4.487-15.639 8.157-1.089 48.75-2.292 49.678 10.099l-0.024 1.255" fill="#ebcb7d"/>
 </g>
</svg>
